<svg width="68" height="58" viewBox="0 0 68 58" fill="none" xmlns="http://www.w3.org/2000/svg">
<path d="M65.8943 40.2747C61.2992 25.2227 47.3294 14.6968 31.1641 13.9599V2.93353C31.1641 1.8226 30.4757 0.819039 29.4161 0.39279C28.3565 -0.0361653 27.1383 0.20306 26.3281 0.989435L0.830756 25.7369C-0.276919 26.812 -0.276919 28.5498 0.830756 29.6249L26.3281 54.3724C27.1383 55.1587 28.3566 55.398 29.4161 54.969C30.4757 54.5456 31.1641 53.5392 31.1641 52.4283V38.2784C36.6658 37.7367 51.5082 38.284 62.7271 56.586C63.2257 57.4026 64.1152 57.8178 65.0558 57.8178C65.342 57.8178 65.6281 57.7793 65.9142 57.705C67.1409 57.3778 67.9965 56.1651 67.9965 54.9278C68.056 49.9592 67.3477 45.0289 65.8943 40.2747Z" fill="#8EFFE4"/>
</svg>
