<svg width="40" height="40" viewBox="0 0 40 40" fill="none" xmlns="http://www.w3.org/2000/svg">
<path d="M39.7998 19.241C34.5445 13.9436 27.5413 11.0263 20.0791 11.0263C20.0611 11.0263 20.0438 11.0277 20.0259 11.0277C20.0169 11.0277 20.0086 11.0263 20.0004 11.0263C19.9755 11.0263 19.9513 11.0298 19.9272 11.0298C12.5222 11.0691 5.57771 13.9795 0.358973 19.241L0.200202 19.4012C-0.0683287 19.6718 -0.0662578 20.1087 0.204344 20.3773C0.338954 20.5105 0.514983 20.5774 0.690322 20.5774C0.867731 20.5774 1.04583 20.5091 1.18044 20.3731L1.33921 20.213C4.95989 16.5633 9.45588 14.1099 14.3557 13.0324C12.3269 14.6788 11.0263 17.1894 11.0263 20.0003C11.0263 24.9485 15.0522 28.9744 20.0004 28.9744C24.9485 28.9744 28.9744 24.9485 28.9744 20.0003C28.9744 17.159 27.6435 14.627 25.5767 12.982C30.5649 14.0326 35.143 16.5074 38.8196 20.2137C39.0881 20.4849 39.5258 20.4863 39.7957 20.2178C40.0663 19.9486 40.0684 19.5116 39.7998 19.241ZM27.5938 19.9997C27.5938 24.1864 24.1871 27.5931 20.0004 27.5931C15.8136 27.5931 12.4069 24.1864 12.4069 19.9997C12.4069 15.8378 15.7743 12.4497 19.9265 12.4097C19.9596 12.4097 19.9928 12.4076 20.0259 12.4076C24.2009 12.4221 27.5938 15.8219 27.5938 19.9997Z" fill="black"/>
<path d="M24.8512 19.3093C24.4701 19.3093 24.1609 19.6186 24.1609 19.9997C24.1609 22.2839 22.3032 24.1415 20.019 24.1415C17.7348 24.1415 15.8771 22.2839 15.8771 19.9997C15.8771 17.7154 17.7348 15.8578 20.019 15.8578C20.4 15.8578 20.7093 15.5485 20.7093 15.1675C20.7093 14.7864 20.4 14.4772 20.019 14.4772C16.974 14.4772 14.4965 16.9547 14.4965 19.9997C14.4965 23.0446 16.974 25.5221 20.019 25.5221C23.064 25.5221 25.5415 23.0446 25.5415 19.9997C25.5415 19.6186 25.2322 19.3093 24.8512 19.3093Z" fill="black"/>
</svg>
