<svg width="251" height="82" viewBox="0 0 251 82" fill="none" xmlns="http://www.w3.org/2000/svg">
<g clip-path="url(#clip0)">
<path d="M76.7015 9.36723H67.2587V6.18381C67.2587 5.55808 67.0175 4.99 66.6255 4.56255C66.1863 4.08368 65.5574 3.78146 64.8564 3.78146C64.1554 3.78146 63.5265 4.08352 63.0873 4.56255C62.6952 4.99 62.4541 5.55808 62.4541 6.18381V9.36723H19.5458V6.18381C19.5458 5.55808 19.3046 4.99 18.9125 4.56255C18.4734 4.08368 17.8444 3.78146 17.1434 3.78146C16.4424 3.78146 15.8135 4.08352 15.3744 4.56255C14.9823 4.99 14.7411 5.55808 14.7411 6.18381V9.36723H5.29829C2.37688 9.36723 0 11.7441 0 14.6657V72.9201C0 75.8417 2.37688 78.2186 5.29829 78.2186H76.7015C79.6231 78.2186 82 75.8417 82 72.9201V14.6657C82 11.7441 79.6231 9.36723 76.7015 9.36723V9.36723ZM23.1405 61.7321C24.0787 62.6701 24.0787 64.1913 23.1405 65.1295C22.6714 65.5986 22.0566 65.8332 21.4419 65.8332C20.8272 65.8332 20.2122 65.5986 19.7433 65.1295L16.9003 62.2865L14.0574 65.1295C13.5883 65.5986 12.9735 65.8332 12.3588 65.8332C11.7441 65.8332 11.1291 65.5986 10.6602 65.1295C9.72196 64.1914 9.72196 62.6703 10.6602 61.7321L13.5031 58.8891L10.6602 56.0462C9.72196 55.1082 9.72196 53.587 10.6602 52.6488C11.5982 51.7108 13.1194 51.7108 14.0576 52.6488L16.9005 55.4918L19.7434 52.6488C20.6815 51.7108 22.2026 51.7108 23.1408 52.6488C24.079 53.5869 24.079 55.108 23.1408 56.0462L20.2979 58.8891L23.1405 61.7321ZM23.1405 34.6988C24.0787 35.6369 24.0787 37.158 23.1405 38.0962C22.6714 38.5653 22.0564 38.7999 21.4419 38.7999C20.827 38.7999 20.2122 38.5655 19.7433 38.0962L16.9003 35.2531L14.0574 38.0962C13.5883 38.5653 12.9735 38.7999 12.3588 38.7999C11.7441 38.7999 11.1291 38.5653 10.6602 38.0962C9.72196 37.1582 9.72196 35.637 10.6602 34.6988L13.5033 31.8557L10.6602 29.0126C9.72196 28.0746 9.72196 26.5534 10.6602 25.6152C11.5982 24.6771 13.1194 24.6771 14.0576 25.6152L16.9005 28.4583L19.7434 25.6152C20.6815 24.6772 22.2026 24.6772 23.1408 25.6152C24.079 26.5533 24.079 28.0744 23.1408 29.0126L20.2977 31.8557L23.1405 34.6988ZM47.2403 61.7321C48.1785 62.6701 48.1785 64.1913 47.2403 65.1295C46.7712 65.5986 46.1564 65.8332 45.5417 65.8332C44.927 65.8332 44.312 65.5986 43.8431 65.1295L41 62.2864L38.1571 65.1293C37.688 65.5984 37.0731 65.833 36.4585 65.833C35.8438 65.833 35.2288 65.5984 34.7598 65.1293C33.8216 64.1913 33.8216 62.6701 34.7598 61.7319L37.6028 58.889L34.7598 56.0461C33.8216 55.108 33.8216 53.5869 34.7598 52.6487C35.6979 51.7106 37.219 51.7106 38.1572 52.6487L41 55.4916L43.8429 52.6487C44.781 51.7106 46.3021 51.7106 47.2403 52.6487C48.1785 53.5867 48.1785 55.1079 47.2403 56.0461L44.3974 58.889L47.2403 61.7321ZM47.2403 34.6988C48.1785 35.6369 48.1785 37.158 47.2403 38.0962C46.7712 38.5653 46.1562 38.7999 45.5417 38.7999C44.9269 38.7999 44.312 38.5655 43.8431 38.0962L41 35.2531L38.1571 38.0962C37.688 38.5653 37.0731 38.7999 36.4585 38.7999C35.8438 38.7999 35.2288 38.5653 34.7598 38.0962C33.8216 37.1582 33.8216 35.637 34.7598 34.6988L37.6029 31.8557L34.7598 29.0126C33.8216 28.0746 33.8216 26.5534 34.7598 25.6152C35.698 24.6771 37.2192 24.6771 38.1572 25.6152L41 28.4583L43.8429 25.6152C44.781 24.6772 46.3021 24.6772 47.2403 25.6152C48.1785 26.5533 48.1785 28.0744 47.2403 29.0126L44.3972 31.8557L47.2403 34.6988ZM71.34 61.7321C72.2782 62.6701 72.2782 64.1913 71.34 65.1295C70.8709 65.5986 70.2561 65.8332 69.6414 65.8332C69.0267 65.8332 68.4117 65.5986 67.9428 65.1295L65.0998 62.2865L62.2569 65.1295C61.7878 65.5986 61.173 65.8332 60.5583 65.8332C59.9436 65.8332 59.3286 65.5986 58.8597 65.1295C57.9215 64.1914 57.9215 62.6703 58.8597 61.7321L61.7026 58.8891L58.8597 56.0462C57.9215 55.1082 57.9215 53.587 58.8597 52.6488C59.7977 51.7108 61.3189 51.7108 62.2571 52.6488L65.1 55.4918L67.9429 52.6488C68.881 51.7108 70.4021 51.7108 71.3403 52.6488C72.2785 53.5869 72.2785 55.108 71.3403 56.0462L68.4974 58.8891L71.34 61.7321ZM71.34 34.6988C72.2782 35.6369 72.2782 37.158 71.34 38.0962C70.8709 38.5653 70.2559 38.7999 69.6414 38.7999C69.0265 38.7999 68.4117 38.5655 67.9428 38.0962L65.0998 35.2531L62.2569 38.0962C61.7878 38.5653 61.173 38.7999 60.5583 38.7999C59.9436 38.7999 59.3286 38.5653 58.8597 38.0962C57.9215 37.1582 57.9215 35.637 58.8597 34.6988L61.7028 31.8557L58.8597 29.0126C57.9215 28.0746 57.9215 26.5534 58.8597 25.6152C59.7979 24.6771 61.319 24.6771 62.2571 25.6152L65.1 28.4583L67.9429 25.6152C68.881 24.6772 70.4021 24.6772 71.3403 25.6152C72.2785 26.5533 72.2785 28.0744 71.3403 29.0126L68.4972 31.8557L71.34 34.6988Z" fill="url(#paint0_linear)"/>
</g>
<g filter="url(#filter0_d)">
<path d="M95.952 41C95.5707 41 95.25 40.87 94.99 40.61C94.73 40.35 94.6 40.0293 94.6 39.648V22.046C94.6 21.6473 94.73 21.3267 94.99 21.084C95.25 20.824 95.5707 20.694 95.952 20.694H101.152C102.452 20.694 103.605 20.98 104.61 21.552C105.615 22.124 106.395 22.9213 106.95 23.944C107.522 24.9493 107.808 26.1107 107.808 27.428C107.808 28.6933 107.522 29.82 106.95 30.808C106.395 31.796 105.615 32.5673 104.61 33.122C103.605 33.6767 102.452 33.954 101.152 33.954H97.304V39.648C97.304 40.0293 97.174 40.35 96.914 40.61C96.6713 40.87 96.3507 41 95.952 41ZM97.304 31.458H101.152C102.331 31.458 103.301 31.0853 104.064 30.34C104.827 29.5773 105.208 28.6067 105.208 27.428C105.208 26.596 105.035 25.868 104.688 25.244C104.341 24.6027 103.865 24.1 103.258 23.736C102.651 23.372 101.949 23.19 101.152 23.19H97.304V31.458ZM116.713 41.104C115.275 41.104 113.992 40.8007 112.865 40.194C111.756 39.57 110.881 38.7207 110.239 37.646C109.615 36.554 109.303 35.306 109.303 33.902C109.303 32.4807 109.598 31.2327 110.187 30.158C110.794 29.066 111.626 28.2167 112.683 27.61C113.741 26.986 114.954 26.674 116.323 26.674C117.675 26.674 118.837 26.9773 119.807 27.584C120.778 28.1733 121.515 28.9967 122.017 30.054C122.537 31.094 122.797 32.2987 122.797 33.668C122.797 33.9973 122.685 34.2747 122.459 34.5C122.234 34.708 121.948 34.812 121.601 34.812H111.721C111.912 36.008 112.458 36.9873 113.359 37.75C114.278 38.4953 115.396 38.868 116.713 38.868C117.251 38.868 117.797 38.7727 118.351 38.582C118.923 38.374 119.383 38.14 119.729 37.88C119.989 37.6893 120.267 37.594 120.561 37.594C120.873 37.5767 121.142 37.6633 121.367 37.854C121.662 38.114 121.818 38.4 121.835 38.712C121.853 39.024 121.714 39.2927 121.419 39.518C120.83 39.986 120.093 40.3673 119.209 40.662C118.343 40.9567 117.511 41.104 116.713 41.104ZM116.323 28.91C115.041 28.91 114.009 29.2653 113.229 29.976C112.449 30.6867 111.955 31.6053 111.747 32.732H120.405C120.249 31.6227 119.825 30.7127 119.131 30.002C118.438 29.274 117.502 28.91 116.323 28.91ZM131.354 41C130.487 41 129.707 40.7833 129.014 40.35C128.321 39.8993 127.775 39.2927 127.376 38.53C126.977 37.7673 126.778 36.9093 126.778 35.956V29.534H125.582C125.218 29.534 124.923 29.43 124.698 29.222C124.473 29.014 124.36 28.754 124.36 28.442C124.36 28.0953 124.473 27.818 124.698 27.61C124.923 27.402 125.218 27.298 125.582 27.298H126.778V23.554C126.778 23.1727 126.899 22.8607 127.142 22.618C127.385 22.3753 127.697 22.254 128.078 22.254C128.459 22.254 128.771 22.3753 129.014 22.618C129.257 22.8607 129.378 23.1727 129.378 23.554V27.298H131.588C131.952 27.298 132.247 27.402 132.472 27.61C132.697 27.818 132.81 28.0953 132.81 28.442C132.81 28.754 132.697 29.014 132.472 29.222C132.247 29.43 131.952 29.534 131.588 29.534H129.378V35.956C129.378 36.6493 129.569 37.23 129.95 37.698C130.331 38.166 130.799 38.4 131.354 38.4H132.238C132.55 38.4 132.81 38.5213 133.018 38.764C133.243 39.0067 133.356 39.3187 133.356 39.7C133.356 40.0813 133.209 40.3933 132.914 40.636C132.637 40.8787 132.273 41 131.822 41H131.354ZM137.915 41C137.049 41 136.615 40.5667 136.615 39.7V28.078C136.615 27.2113 137.049 26.778 137.915 26.778C138.782 26.778 139.215 27.2113 139.215 28.078V28.572C139.735 27.9653 140.368 27.4887 141.113 27.142C141.876 26.7953 142.699 26.622 143.583 26.622C144.623 26.622 145.395 26.7953 145.897 27.142C146.417 27.4713 146.617 27.87 146.495 28.338C146.409 28.702 146.235 28.9447 145.975 29.066C145.715 29.17 145.412 29.1873 145.065 29.118C143.956 28.8927 142.959 28.8753 142.075 29.066C141.191 29.2567 140.489 29.612 139.969 30.132C139.467 30.652 139.215 31.3107 139.215 32.108V39.7C139.215 40.5667 138.782 41 137.915 41ZM154.667 41.104C153.263 41.104 152.024 40.8007 150.949 40.194C149.874 39.57 149.025 38.7207 148.401 37.646C147.794 36.554 147.491 35.306 147.491 33.902C147.491 32.4807 147.794 31.2327 148.401 30.158C149.025 29.066 149.874 28.2167 150.949 27.61C152.024 26.986 153.263 26.674 154.667 26.674C156.054 26.674 157.284 26.986 158.359 27.61C159.434 28.2167 160.274 29.066 160.881 30.158C161.505 31.2327 161.817 32.4807 161.817 33.902C161.817 35.306 161.514 36.554 160.907 37.646C160.3 38.7207 159.46 39.57 158.385 40.194C157.31 40.8007 156.071 41.104 154.667 41.104ZM154.667 38.764C155.568 38.764 156.366 38.556 157.059 38.14C157.752 37.724 158.29 37.152 158.671 36.424C159.07 35.696 159.269 34.8553 159.269 33.902C159.269 32.9487 159.07 32.108 158.671 31.38C158.29 30.6347 157.752 30.054 157.059 29.638C156.366 29.222 155.568 29.014 154.667 29.014C153.766 29.014 152.968 29.222 152.275 29.638C151.582 30.054 151.036 30.6347 150.637 31.38C150.238 32.108 150.039 32.9487 150.039 33.902C150.039 34.8553 150.238 35.696 150.637 36.424C151.036 37.152 151.582 37.724 152.275 38.14C152.968 38.556 153.766 38.764 154.667 38.764ZM93.794 70C93.3087 70 92.936 69.792 92.676 69.376C92.416 68.96 92.39 68.518 92.598 68.05L99.904 50.604C100.164 49.9973 100.589 49.694 101.178 49.694C101.802 49.694 102.227 49.9973 102.452 50.604L109.784 68.102C109.975 68.5873 109.94 69.0293 109.68 69.428C109.437 69.8093 109.065 70 108.562 70C108.302 70 108.051 69.9307 107.808 69.792C107.583 69.636 107.418 69.428 107.314 69.168L105.858 65.528H96.524L95.042 69.168C94.9207 69.4453 94.7387 69.6533 94.496 69.792C94.2707 69.9307 94.0367 70 93.794 70ZM97.434 63.292H104.948L101.23 54.036L97.434 63.292ZM117.795 70C116.929 70 116.149 69.7833 115.455 69.35C114.762 68.8993 114.216 68.2927 113.817 67.53C113.419 66.7673 113.219 65.9093 113.219 64.956V58.534H112.023C111.659 58.534 111.365 58.43 111.139 58.222C110.914 58.014 110.801 57.754 110.801 57.442C110.801 57.0953 110.914 56.818 111.139 56.61C111.365 56.402 111.659 56.298 112.023 56.298H113.219V52.554C113.219 52.1727 113.341 51.8607 113.583 51.618C113.826 51.3753 114.138 51.254 114.519 51.254C114.901 51.254 115.213 51.3753 115.455 51.618C115.698 51.8607 115.819 52.1727 115.819 52.554V56.298H118.029C118.393 56.298 118.688 56.402 118.913 56.61C119.139 56.818 119.251 57.0953 119.251 57.442C119.251 57.754 119.139 58.014 118.913 58.222C118.688 58.43 118.393 58.534 118.029 58.534H115.819V64.956C115.819 65.6493 116.01 66.23 116.391 66.698C116.773 67.166 117.241 67.4 117.795 67.4H118.679C118.991 67.4 119.251 67.5213 119.459 67.764C119.685 68.0067 119.797 68.3187 119.797 68.7C119.797 69.0813 119.65 69.3933 119.355 69.636C119.078 69.8787 118.714 70 118.263 70H117.795ZM128.231 70C127.364 70 126.584 69.7833 125.891 69.35C125.197 68.8993 124.651 68.2927 124.253 67.53C123.854 66.7673 123.655 65.9093 123.655 64.956V58.534H122.459C122.095 58.534 121.8 58.43 121.575 58.222C121.349 58.014 121.237 57.754 121.237 57.442C121.237 57.0953 121.349 56.818 121.575 56.61C121.8 56.402 122.095 56.298 122.459 56.298H123.655V52.554C123.655 52.1727 123.776 51.8607 124.019 51.618C124.261 51.3753 124.573 51.254 124.955 51.254C125.336 51.254 125.648 51.3753 125.891 51.618C126.133 51.8607 126.255 52.1727 126.255 52.554V56.298H128.465C128.829 56.298 129.123 56.402 129.349 56.61C129.574 56.818 129.687 57.0953 129.687 57.442C129.687 57.754 129.574 58.014 129.349 58.222C129.123 58.43 128.829 58.534 128.465 58.534H126.255V64.956C126.255 65.6493 126.445 66.23 126.827 66.698C127.208 67.166 127.676 67.4 128.231 67.4H129.115C129.427 67.4 129.687 67.5213 129.895 67.764C130.12 68.0067 130.233 68.3187 130.233 68.7C130.233 69.0813 130.085 69.3933 129.791 69.636C129.513 69.8787 129.149 70 128.699 70H128.231ZM140.174 70.104C138.736 70.104 137.453 69.8007 136.326 69.194C135.217 68.57 134.342 67.7207 133.7 66.646C133.076 65.554 132.764 64.306 132.764 62.902C132.764 61.4807 133.059 60.2327 133.648 59.158C134.255 58.066 135.087 57.2167 136.144 56.61C137.202 55.986 138.415 55.674 139.784 55.674C141.136 55.674 142.298 55.9773 143.268 56.584C144.239 57.1733 144.976 57.9967 145.478 59.054C145.998 60.094 146.258 61.2987 146.258 62.668C146.258 62.9973 146.146 63.2747 145.92 63.5C145.695 63.708 145.409 63.812 145.062 63.812H135.182C135.373 65.008 135.919 65.9873 136.82 66.75C137.739 67.4953 138.857 67.868 140.174 67.868C140.712 67.868 141.258 67.7727 141.812 67.582C142.384 67.374 142.844 67.14 143.19 66.88C143.45 66.6893 143.728 66.594 144.022 66.594C144.334 66.5767 144.603 66.6633 144.828 66.854C145.123 67.114 145.279 67.4 145.296 67.712C145.314 68.024 145.175 68.2927 144.88 68.518C144.291 68.986 143.554 69.3673 142.67 69.662C141.804 69.9567 140.972 70.104 140.174 70.104ZM139.784 57.91C138.502 57.91 137.47 58.2653 136.69 58.976C135.91 59.6867 135.416 60.6053 135.208 61.732H143.866C143.71 60.6227 143.286 59.7127 142.592 59.002C141.899 58.274 140.963 57.91 139.784 57.91ZM150.967 70.026C150.585 70.026 150.265 69.9047 150.005 69.662C149.762 69.402 149.641 69.0813 149.641 68.7V57.104C149.641 56.7053 149.762 56.3847 150.005 56.142C150.265 55.8993 150.585 55.778 150.967 55.778C151.365 55.778 151.686 55.8993 151.929 56.142C152.171 56.3847 152.293 56.7053 152.293 57.104V57.39C152.83 56.8527 153.48 56.428 154.243 56.116C155.005 55.804 155.829 55.648 156.713 55.648C157.909 55.648 158.975 55.908 159.911 56.428C160.864 56.9307 161.609 57.676 162.147 58.664C162.701 59.652 162.979 60.8653 162.979 62.304V68.7C162.979 69.0813 162.849 69.402 162.589 69.662C162.346 69.9047 162.034 70.026 161.653 70.026C161.271 70.026 160.951 69.9047 160.691 69.662C160.448 69.402 160.327 69.0813 160.327 68.7V62.304C160.327 60.8307 159.928 59.756 159.131 59.08C158.351 58.3867 157.371 58.04 156.193 58.04C155.465 58.04 154.806 58.1873 154.217 58.482C153.627 58.7767 153.159 59.1753 152.813 59.678C152.466 60.1633 152.293 60.7267 152.293 61.368V68.7C152.293 69.0813 152.171 69.402 151.929 69.662C151.686 69.9047 151.365 70.026 150.967 70.026ZM173.811 70.104C172.459 70.104 171.237 69.792 170.145 69.168C169.071 68.5267 168.213 67.66 167.571 66.568C166.947 65.476 166.635 64.2453 166.635 62.876C166.635 61.5067 166.921 60.2847 167.493 59.21C168.083 58.118 168.88 57.26 169.885 56.636C170.891 55.9947 172.026 55.674 173.291 55.674C174.314 55.674 175.259 55.8907 176.125 56.324C176.992 56.74 177.72 57.312 178.309 58.04V51.02C178.309 50.6213 178.431 50.3007 178.673 50.058C178.933 49.8153 179.254 49.694 179.635 49.694C180.034 49.694 180.355 49.8153 180.597 50.058C180.84 50.3007 180.961 50.6213 180.961 51.02V62.876C180.961 64.2453 180.641 65.476 179.999 66.568C179.375 67.66 178.526 68.5267 177.451 69.168C176.377 69.792 175.163 70.104 173.811 70.104ZM173.811 67.764C174.695 67.764 175.484 67.556 176.177 67.14C176.871 66.7067 177.417 66.1173 177.815 65.372C178.214 64.6267 178.413 63.7947 178.413 62.876C178.413 61.94 178.214 61.108 177.815 60.38C177.417 59.652 176.871 59.08 176.177 58.664C175.484 58.2307 174.695 58.014 173.811 58.014C172.945 58.014 172.156 58.2307 171.445 58.664C170.752 59.08 170.197 59.652 169.781 60.38C169.383 61.108 169.183 61.94 169.183 62.876C169.183 63.7947 169.383 64.6267 169.781 65.372C170.197 66.1173 170.752 66.7067 171.445 67.14C172.156 67.556 172.945 67.764 173.811 67.764ZM191.573 70.104C190.307 70.104 189.172 69.792 188.167 69.168C187.161 68.5267 186.364 67.6687 185.775 66.594C185.203 65.502 184.917 64.2713 184.917 62.902C184.917 61.5327 185.229 60.302 185.853 59.21C186.494 58.118 187.352 57.26 188.427 56.636C189.519 55.9947 190.741 55.674 192.093 55.674C193.445 55.674 194.658 55.9947 195.733 56.636C196.807 57.26 197.657 58.118 198.281 59.21C198.922 60.302 199.243 61.5327 199.243 62.902V68.7C199.243 69.0813 199.113 69.402 198.853 69.662C198.61 69.9047 198.298 70.026 197.917 70.026C197.535 70.026 197.215 69.9047 196.955 69.662C196.712 69.402 196.591 69.0813 196.591 68.7V67.738C195.984 68.466 195.247 69.0467 194.381 69.48C193.531 69.896 192.595 70.104 191.573 70.104ZM192.093 67.764C192.977 67.764 193.765 67.556 194.459 67.14C195.152 66.7067 195.698 66.126 196.097 65.398C196.495 64.6527 196.695 63.8207 196.695 62.902C196.695 61.966 196.495 61.134 196.097 60.406C195.698 59.6607 195.152 59.08 194.459 58.664C193.765 58.2307 192.977 58.014 192.093 58.014C191.226 58.014 190.437 58.2307 189.727 58.664C189.033 59.08 188.479 59.6607 188.063 60.406C187.664 61.134 187.465 61.966 187.465 62.902C187.465 63.8207 187.664 64.6527 188.063 65.398C188.479 66.126 189.033 66.7067 189.727 67.14C190.437 67.556 191.226 67.764 192.093 67.764ZM204.516 70.026C204.134 70.026 203.814 69.9047 203.554 69.662C203.311 69.402 203.19 69.0813 203.19 68.7V57.104C203.19 56.7053 203.311 56.3847 203.554 56.142C203.814 55.8993 204.134 55.778 204.516 55.778C204.914 55.778 205.235 55.8993 205.478 56.142C205.72 56.3847 205.842 56.7053 205.842 57.104V57.39C206.379 56.8527 207.029 56.428 207.792 56.116C208.554 55.804 209.378 55.648 210.262 55.648C211.458 55.648 212.524 55.908 213.46 56.428C214.413 56.9307 215.158 57.676 215.696 58.664C216.25 59.652 216.528 60.8653 216.528 62.304V68.7C216.528 69.0813 216.398 69.402 216.138 69.662C215.895 69.9047 215.583 70.026 215.202 70.026C214.82 70.026 214.5 69.9047 214.24 69.662C213.997 69.402 213.876 69.0813 213.876 68.7V62.304C213.876 60.8307 213.477 59.756 212.68 59.08C211.9 58.3867 210.92 58.04 209.742 58.04C209.014 58.04 208.355 58.1873 207.766 58.482C207.176 58.7767 206.708 59.1753 206.362 59.678C206.015 60.1633 205.842 60.7267 205.842 61.368V68.7C205.842 69.0813 205.72 69.402 205.478 69.662C205.235 69.9047 204.914 70.026 204.516 70.026ZM227.36 70.104C225.974 70.104 224.734 69.792 223.642 69.168C222.568 68.5267 221.718 67.6687 221.094 66.594C220.488 65.502 220.184 64.2713 220.184 62.902C220.184 61.498 220.488 60.25 221.094 59.158C221.701 58.066 222.533 57.2167 223.59 56.61C224.648 55.986 225.861 55.674 227.23 55.674C229.276 55.674 230.974 56.454 232.326 58.014C232.569 58.2913 232.656 58.5773 232.586 58.872C232.517 59.1667 232.326 59.4267 232.014 59.652C231.772 59.8253 231.503 59.886 231.208 59.834C230.914 59.7647 230.645 59.6087 230.402 59.366C229.553 58.4647 228.496 58.014 227.23 58.014C225.896 58.014 224.812 58.4647 223.98 59.366C223.148 60.25 222.732 61.4287 222.732 62.902C222.732 63.838 222.923 64.67 223.304 65.398C223.703 66.126 224.249 66.7067 224.942 67.14C225.636 67.556 226.442 67.764 227.36 67.764C228.539 67.764 229.492 67.4607 230.22 66.854C230.498 66.6287 230.784 66.5073 231.078 66.49C231.373 66.4553 231.633 66.5333 231.858 66.724C232.153 66.9667 232.318 67.244 232.352 67.556C232.387 67.8507 232.283 68.1193 232.04 68.362C230.792 69.5233 229.232 70.104 227.36 70.104ZM243.21 70.104C241.771 70.104 240.488 69.8007 239.362 69.194C238.252 68.57 237.377 67.7207 236.736 66.646C236.112 65.554 235.8 64.306 235.8 62.902C235.8 61.4807 236.094 60.2327 236.684 59.158C237.29 58.066 238.122 57.2167 239.18 56.61C240.237 55.986 241.45 55.674 242.82 55.674C244.172 55.674 245.333 55.9773 246.304 56.584C247.274 57.1733 248.011 57.9967 248.513 59.054C249.034 60.094 249.294 61.2987 249.294 62.668C249.294 62.9973 249.181 63.2747 248.956 63.5C248.73 63.708 248.444 63.812 248.098 63.812H238.218C238.408 65.008 238.954 65.9873 239.856 66.75C240.774 67.4953 241.892 67.868 243.21 67.868C243.747 67.868 244.293 67.7727 244.848 67.582C245.42 67.374 245.879 67.14 246.226 66.88C246.486 66.6893 246.763 66.594 247.058 66.594C247.37 66.5767 247.638 66.6633 247.864 66.854C248.158 67.114 248.314 67.4 248.332 67.712C248.349 68.024 248.21 68.2927 247.915 68.518C247.326 68.986 246.59 69.3673 245.706 69.662C244.839 69.9567 244.007 70.104 243.21 70.104ZM242.82 57.91C241.537 57.91 240.506 58.2653 239.726 58.976C238.946 59.6867 238.452 60.6053 238.244 61.732H246.902C246.746 60.6227 246.321 59.7127 245.628 59.002C244.934 58.274 243.998 57.91 242.82 57.91Z" fill="url(#paint1_linear)" shape-rendering="crispEdges"/>
</g>
<defs>
<filter id="filter0_d" x="91.4593" y="20.694" width="158.834" height="51.41" filterUnits="userSpaceOnUse" color-interpolation-filters="sRGB">
<feFlood flood-opacity="0" result="BackgroundImageFix"/>
<feColorMatrix in="SourceAlpha" type="matrix" values="0 0 0 0 0 0 0 0 0 0 0 0 0 0 0 0 0 0 127 0" result="hardAlpha"/>
<feOffset dy="1"/>
<feGaussianBlur stdDeviation="0.5"/>
<feComposite in2="hardAlpha" operator="out"/>
<feColorMatrix type="matrix" values="0 0 0 0 0 0 0 0 0 0 0 0 0 0 0 0 0 0 0.25 0"/>
<feBlend mode="normal" in2="BackgroundImageFix" result="effect1_dropShadow"/>
<feBlend mode="normal" in="SourceGraphic" in2="effect1_dropShadow" result="shape"/>
</filter>
<linearGradient id="paint0_linear" x1="41" y1="81.6204" x2="41" y2="0.379648" gradientUnits="userSpaceOnUse">
<stop stop-color="#00FFFF"/>
<stop offset="0.0001" stop-color="#00FFFF"/>
<stop offset="0.240625" stop-color="#5BF2E0" stop-opacity="0.69"/>
<stop offset="0.5375" stop-color="#6FFFDD"/>
<stop offset="0.735416" stop-color="#5DFFC5"/>
<stop offset="1" stop-color="#00A9A9"/>
<stop offset="1" stop-color="#00FF94"/>
</linearGradient>
<linearGradient id="paint1_linear" x1="171.5" y1="18" x2="171.5" y2="76" gradientUnits="userSpaceOnUse">
<stop stop-color="#5BF2E0" stop-opacity="0.69"/>
<stop offset="1" stop-color="#5DFFC5"/>
</linearGradient>
<clipPath id="clip0">
<rect width="82" height="82" fill="white"/>
</clipPath>
</defs>
</svg>
