<svg width="40" height="40" viewBox="0 0 40 40" fill="none" xmlns="http://www.w3.org/2000/svg">
<path d="M30.8108 31.3514C30.7665 31.3513 30.7224 31.3459 30.6794 31.3351L24.0881 29.687C23.9932 29.6632 23.9065 29.6141 23.8373 29.5449L9.83079 15.5384C9.45606 15.1636 9.15883 14.7186 8.95605 14.229C8.75328 13.7393 8.64894 13.2145 8.64899 12.6845C8.64904 12.1545 8.75348 11.6297 8.95634 11.1401C9.15921 10.6504 9.45653 10.2055 9.83133 9.83081C10.2061 9.45608 10.6511 9.15884 11.1407 8.95607C11.6304 8.75329 12.1552 8.64895 12.6852 8.649C13.2152 8.64905 13.74 8.75349 14.2297 8.95636C14.7193 9.15923 15.1642 9.45655 15.5389 9.83135L29.5454 23.8378C29.6146 23.907 29.6637 23.9937 29.6876 24.0886L31.3351 30.6832C31.3544 30.7627 31.3554 30.8455 31.3381 30.9254C31.3208 31.0053 31.2855 31.0802 31.2351 31.1445C31.1846 31.2088 31.1202 31.2609 31.0467 31.2967C30.9732 31.3325 30.8926 31.3512 30.8108 31.3514ZM24.4957 28.6746L30.0676 30.0681L28.6751 24.4957L14.7746 10.5946C14.5014 10.315 14.1754 10.0924 13.8156 9.93964C13.4557 9.78691 13.0691 9.70708 12.6782 9.7048C12.2873 9.70251 11.8998 9.77781 11.5382 9.92633C11.1766 10.0748 10.8481 10.2936 10.5716 10.57C10.2952 10.8464 10.0763 11.1749 9.92769 11.5365C9.77908 11.898 9.70368 12.2855 9.70587 12.6764C9.70805 13.0673 9.78777 13.4539 9.94042 13.8138C10.0931 14.1737 10.3156 14.4997 10.5951 14.773L24.4957 28.6746Z" fill="black"/>
<path d="M23.8323 28.7806L28.7752 23.8377L29.5395 24.6021L24.5966 29.5449L23.8323 28.7806Z" fill="black"/>
<path d="M13.5355 18.4817L18.4784 13.5388L19.2427 14.3032L14.2998 19.246L13.5355 18.4817Z" fill="black"/>
<path d="M19.403 20.1727L20.1673 19.4084L27.0687 26.3098L26.3044 27.0742L19.403 20.1727Z" fill="black"/>
<path d="M16.0089 16.7755L16.7733 16.011L18.6382 17.8759L17.8737 18.6403L16.0089 16.7755Z" fill="black"/>
</svg>
